<svg xmlns="http://www.w3.org/2000/svg" version="1.1" xmlns:xlink="http://www.w3.org/1999/xlink" viewBox="0 0 12.822682919021542 6.732971123370205"><g transform="matrix(0.8051280593634318,0,0,0.8051280593634318,7.4716460370986955,2.3870800121379645)"><g transform="matrix(1,0,0,1,0,0)" clip-path="url(#SvgjsClipPath194312)"><g clip-path="url(#SvgjsClipPath194310d0f2dc08-c67a-4233-9039-4d6c19539d2e)"><path d=" M -0.731138945122356 1.0209824286255809 C -0.6941228256540244 1.0964907499046461 -0.631416163962701 1.182861695330753 -0.5554717274461094 1.3011361477483248 C -0.4237112499911353 1.5063384312030008 -0.3522621551536753 1.5488831499901474 -0.43608350380654226 1.6208622925778329 C -0.4511462531642376 1.6337914320042377 -0.5950978288744153 1.7158079345202575 -0.660139384452811 1.7428269508514105 C -0.7458863496159909 1.7784542110248451 -0.7646057575037295 1.7766091080968427 -0.7669138135300306 1.9268810000185788 C -0.7614791467239135 2.0094074218892466 -0.7061998630009523 2.098938525421133 -0.7007651961948334 2.1814783662221866 C -0.6930291828276074 2.2988940070950883 -0.8506211012746201 2.311641990961289 -0.8542844692698548 2.3672902952698514 C -0.859745973936743 2.4509103599669357 -0.638239690063716 2.4318286409587913 -0.7762600985435126 2.5486941056858887 C -0.84052335615955 2.6031145778641807 -0.8436030006830171 2.7413295608345676 -0.8441531768288213 2.889669126780796 C -0.8454011373546715 3.2225726612488392 -1.107734516925503 3.113557270797245 -1.4180741199503721 3.118904714555856 C -1.5191723414745377 3.120649175505968 -1.6134000706413394 3.1267279509705883 -1.7012135510838844 3.1366244121298754 C -2.2026789795890664 3.193178494239457 -2.224840343120677 3.691114744053259 -2.282836960246698 3.7478164343970803 C -2.263151389371208 3.6798025857383037 -3.857031812162289 3.768125985535497 -3.857031812162289 3.768125985535497 C -3.8204316795359086 3.1903202620673516 -3.884694937151946 2.818287126595263 -3.988678228708988 2.5565106326354274 L -2.6613715674905496 2.5565106326354274 C -2.5545277990478272 2.5561716906320204 -2.468003164335893 2.4696320696663245 -2.4676827263066086 2.3627882441255244 L -2.4676827263066086 2.3627882441255244 C -2.467995895968115 2.2559261340585595 -2.5545430266980675 2.1693730083069145 -2.6614051148165165 2.1690524366852366 L -4.6262250302532655 2.1690524366852366 C -4.73309126270984 2.168739211505262 -4.819644604107724 2.0821828724852467 -4.819954128228361 1.9753166292449484 L -4.819954128228361 1.9753166292449484 C -4.819629912136264 1.868458674244351 -4.733082996418625 1.7819147559262971 -4.626225030253268 1.7815942407350458 L -3.7136505409934957 1.7815942407350458 C -3.60678799243555 1.781288417860793 -3.520231659605015 1.6947410778960066 -3.519914733553207 1.5878785616903355 L -3.519914733553207 1.5878785616903355 C -3.5202279403936543 1.48101123312586 -3.606783212429041 1.3944559610904825 -3.713650540993506 1.3941427542500486 L -6.027993336180701 1.3941427542500486 C -6.134852157597769 1.3938295291902163 -6.221399491224609 1.3072791979416807 -6.221709015225413 1.2004203657401455 L -6.221709015225413 1.2004203657401455 C -6.221403192351156 1.0935578171821914 -6.134855852386365 1.00700148435166 -6.027993336180694 1.0066845582998578 L -3.3697703214701327 1.0066845582998578 C -3.2629093077277953 1.0063713700469332 -3.1763581127543605 0.9198231726212933 -3.176041223495037 0.8129621697899561 L -3.176041223495037 0.8129621697899561 C -3.1763507107366515 0.7060937340464215 -3.262901918457345 0.6195335336810306 -3.3697703214701398 0.6192129434192821 L -4.891577669160831 0.6192129434192821 C -4.998439110791754 0.6189034011064143 -5.084990515357866 0.5323519965403023 -5.085300057670734 0.4254905549093795 L -5.085300057670734 0.4254905549093795 C -5.084986850951689 0.31863063738367425 -4.998437586686528 0.23208137311851673 -4.891577669160828 0.23176816639947706 L -2.661425243212091 0.23176816639947706 C -2.554565764359488 0.23144761348279075 -2.4680197066652543 0.1448985583148723 -2.4677028547021873 0.03803906842438165 L -2.4677028547021873 0.03803906842438165 C -2.4680160243636937 -0.06882304164258368 -2.5545631550936463 -0.15537616739422844 -2.6614252432120953 -0.1556967390159063 L -6.004469951214964 -0.1556967390159063 C -6.111331392845888 -0.15600628132877392 -6.197882797411999 -0.2425576858948857 -6.1981923397248675 -0.34941912752580884 L -6.1981923397248675 -0.34941912752580884 C -6.197882834041628 -0.45628276144472735 -6.111333563439147 -0.5428380272171248 -6.004469951214958 -0.5431549349660968 L -3.746171318782691 -0.5431549349660968 C -3.6393092087157326 -0.5434681046275994 -3.5527560829640845 -0.6300152353575494 -3.5524355113424035 -0.736877323475999 L -3.5524355113424035 -0.736877323475999 C -3.552756045554677 -0.8437416042087491 -3.6393070380499455 -0.9302925967040159 -3.7461713187826944 -0.9306131309162871 L -4.517021774776273 -0.9306131309162871 C -4.623884323334219 -0.9309189537905393 -4.710440656164755 -1.0174662937553256 -4.710757582216562 -1.1243288099609967 L -4.710757582216562 -1.1243288099609967 C -4.710444393840974 -1.2311972347413505 -4.623890188646374 -1.3177544374841785 -4.517021774776273 -1.3180713268664774 L -2.990524510915852 -1.3180713268664774 C -2.5681636770330414 -1.3735720229408 -2.1168716292391494 -1.2970103156264752 -1.6901764808418314 -1.0486192047261498 C -1.106741516076979 -0.7090062050653688 -0.8761841636589498 0.01093953851091567 -0.9221440002291983 0.5071044895138352 C -0.9390988187712468 0.6902192135540206 -0.8441665957592068 0.7905190087202492 -0.731138945122356 1.0209824286255809 Z M -5.270286722499691 2.1690390177548515 C -5.163421586042998 2.1687257743606834 -5.076870175212648 2.0821683682121606 -5.076564333989789 1.9753032103145634 L -5.076564333989789 1.9753032103145634 C -5.076881204632888 1.8684448167673264 -5.163428328952467 1.7818976924477514 -5.270286722499698 1.7815808218046607 L -5.756179482292531 1.7815808218046607 C -5.8630415923594885 1.7818939914661631 -5.949594718111137 1.8684411221961144 -5.94991528973282 1.9753032103145634 L -5.94991528973282 1.9753032103145634 C -5.949605747301376 2.0821720629849896 -5.863048334962961 2.1687294753234063 -5.756179482292532 2.1690390177548515 Z M -5.331295889497252 -0.9306131309162871 C -5.224440105125387 -0.9309299828165802 -5.137894053841105 -1.0174730366273996 -5.137573500987349 -1.1243288099609967 L -5.137573500987349 -1.1243288099609967 C -5.13788298816779 -1.231193540185908 -5.224431192004228 -1.317750736666379 -5.331295889497265 -1.3180713268664774 L -5.817188649290091 -1.3180713268664774 C -5.924058587266421 -1.3177581016264375 -6.010614932549833 -1.2311987587206776 -6.01092445673038 -1.1243288099609967 L -6.01092445673038 -1.1243288099609967 C -6.010603866591925 -1.0174678179877166 -5.92404967399636 -0.930922618035539 -5.8171886492900935 -0.9306131309162871 Z M -6.233833018828689 0.6192129434192823 C -6.126983582269111 0.618885007862159 -6.040450600029323 0.5323400358780455 -6.040137468179556 0.4254905549093795 L -6.040137468179556 0.4254905549093795 C -6.040447010492423 0.3186291132784571 -6.1269984150585355 0.2320777087123449 -6.233859856689459 0.23176816639947706 L -6.719752616482298 0.23176816639947706 C -6.826617774379893 0.23207400762233688 -6.913175180528419 0.3186254184526849 -6.913488423922586 0.4254905549093795 L -6.913488423922586 0.4254905549093795 C -6.913171516173611 0.5323541671335696 -6.8266162504012105 0.6189034377360456 -6.7197526164823005 0.6192129434192823 Z M -2.092167378399492 -0.5431549349660962 C -1.9853037444805794 -0.5434644406493326 -1.8987484787081792 -0.6300137112518089 -1.8984315709592048 -0.7368773234759985 L -1.8984315709592048 -0.7368773234759985 C -1.898748441726548 -0.8437431280612375 -1.985301573814243 -0.9302962601489358 -2.0921673783994867 -0.9306131309162866 L -2.578053428727138 -0.9306131309162866 C -2.6849192333123817 -0.9302962601489386 -2.7714723654000775 -0.8437431280612426 -2.7717892361674252 -0.7368773234759984 L -2.7717892361674252 -0.7368773234759984 C -2.771472328418449 -0.6300137112518098 -2.6849170626460506 -0.5434644406493335 -2.578053428727138 -0.5431549349660968 Z M -1.6911896100859352 1.0066711393694732 C -1.5843296925602344 1.006357932650431 -1.4977804282950755 0.9198086683852718 -1.4974672215760334 0.8129487508595701 L -1.4974672215760334 0.8129487508595701 C -1.4977767272592724 0.7060851169406517 -1.5843259978617512 0.6195298511682545 -1.6911896100859414 0.6192129434192823 L -2.177075660413581 0.6192129434192823 C -2.2839414649988266 0.6195298141866308 -2.3704945970865223 0.7060829462743268 -2.37081146785387 0.812948750859571 L -2.37081146785387 0.812948750859571 C -2.370498224459703 0.9198138873162631 -2.283940818311179 1.0063652981466125 -2.1770756604135837 1.0066711393694732 Z M -2.3867464476866207 1.781614369130625 C -2.2798630213661646 1.7813084030129658 -2.1932981000092147 1.6947284920592458 -2.1930106402463316 1.5878450143643725 L -2.1930106402463316 1.5878450143643725 C -2.193323847086779 1.4809776857998966 -2.2798791191221657 1.3944224137645191 -2.3867464476866314 1.3941092069240848 L -2.872639207479458 1.3941092069240848 C -2.9795065360439232 1.3944224137645254 -3.066061808079305 1.4809776857999077 -3.0663750149197466 1.5878450143643725 L -3.0663750149197466 1.5878450143643725 C -3.0660507611766943 1.6947044822320332 -2.979498708460762 1.7812475425269003 -2.8726392074794544 1.781560693409082 Z" fill="#4e888f" transform="matrix(1,0,0,1,0,0)" fill-rule="evenodd"></path></g></g><g><path d=" M 0.8805000000000001 -2.220446049250313e-16 L 0.8805000000000001 0.23399999999999987 L 0.5985 0.23399999999999987 L 0.5985 1.0574999999999999 L 0.3045 1.0574999999999999 L 0.3045 0.23399999999999987 L 0.025500000000000002 0.23399999999999987 L 0.025500000000000002 -2.220446049250313e-16 L 0.8805000000000001 -2.220446049250313e-16 M 1.282505859375 0.8324999999999999 L 1.611005859375 0.8324999999999999 L 1.611005859375 1.0574999999999999 L 0.9885058593749999 1.0574999999999999 L 0.9885058593749999 -2.220446049250313e-16 L 1.282505859375 -2.220446049250313e-16 L 1.282505859375 0.8324999999999999 M 1.7902976074218748 0.44174999999999986 Q 1.7430476074218748 0.3989999999999999 1.7430476074218748 0.33299999999999985 Q 1.7430476074218748 0.2669999999999999 1.7902976074218748 0.22349999999999992 Q 1.8375476074218748 0.17999999999999983 1.915547607421875 0.17999999999999983 Q 1.992047607421875 0.17999999999999983 2.039297607421875 0.22349999999999992 Q 2.086547607421875 0.2669999999999999 2.086547607421875 0.33299999999999985 Q 2.086547607421875 0.39749999999999985 2.039297607421875 0.44099999999999984 Q 1.992047607421875 0.4844999999999998 1.915547607421875 0.4844999999999998 Q 1.8375476074218748 0.4844999999999998 1.7902976074218748 0.44174999999999986 M 2.074547607421875 0.8054999999999999 L 1.9140476074218749 1.2434999999999998 L 1.728047607421875 1.2434999999999998 L 1.806047607421875 0.8054999999999999 L 2.074547607421875 0.8054999999999999 M 2.9813393554687497 0.06674999999999986 Q 3.10658935546875 0.13349999999999984 3.17408935546875 0.25349999999999984 Q 3.24158935546875 0.37349999999999983 3.24158935546875 0.5279999999999999 Q 3.24158935546875 0.6809999999999998 3.17333935546875 0.8009999999999999 Q 3.10508935546875 0.9209999999999998 2.9798393554687497 0.9892499999999999 Q 2.85458935546875 1.0574999999999999 2.6895893554687498 1.0574999999999999 L 2.27108935546875 1.0574999999999999 L 2.27108935546875 -2.220446049250313e-16 L 2.6895893554687498 -2.220446049250313e-16 Q 2.85608935546875 -2.220446049250313e-16 2.9813393554687497 0.06674999999999986 M 2.86958935546875 0.7274999999999998 Q 2.94308935546875 0.6569999999999998 2.94308935546875 0.5279999999999999 Q 2.94308935546875 0.39749999999999985 2.86958935546875 0.3262499999999998 Q 2.79608935546875 0.2549999999999999 2.66708935546875 0.2549999999999999 L 2.56508935546875 0.2549999999999999 L 2.56508935546875 0.7979999999999998 L 2.66708935546875 0.7979999999999998 Q 2.79608935546875 0.7979999999999998 2.86958935546875 0.7274999999999998 M 3.9075673828124997 1.0574999999999999 L 3.6975673828124997 0.6674999999999999 L 3.6660673828125 0.6674999999999999 L 3.6660673828125 1.0574999999999999 L 3.3720673828125 1.0574999999999999 L 3.3720673828125 -2.220446049250313e-16 L 3.8355673828124996 -2.220446049250313e-16 Q 3.9630673828124996 -2.220446049250313e-16 4.0515673828125 0.0442499999999999 Q 4.1400673828125 0.08849999999999991 4.1850673828125 0.16574999999999984 Q 4.2300673828125 0.24299999999999988 4.2300673828125 0.33899999999999986 Q 4.2300673828125 0.44699999999999984 4.1708173828124995 0.5287499999999998 Q 4.1115673828125 0.6104999999999998 3.9975673828125 0.6449999999999998 L 4.2360673828125 1.0574999999999999 L 3.9075673828124997 1.0574999999999999 M 3.6660673828125 0.4664999999999999 L 3.8115673828124996 0.4664999999999999 Q 3.8715673828124997 0.4664999999999999 3.9015673828125 0.43799999999999983 Q 3.9315673828124997 0.40949999999999986 3.9315673828124997 0.3554999999999998 Q 3.9315673828124997 0.3044999999999999 3.9008173828125 0.2752499999999999 Q 3.8700673828124996 0.24599999999999989 3.8115673828124996 0.24599999999999989 L 3.6660673828125 0.24599999999999989 L 3.6660673828125 0.4664999999999999" fill="#ffffff" fill-rule="nonzero"></path></g><g><path d=" M 0.5856657490148114 2.2873825064548714 L 0.27816188881064186 2.2873825064548714 L 0.22886737686951547 2.4329186845667685 L 0.01877886169185768 2.4329186845667685 L 0.31689329105009834 1.6089961278365128 L 0.5492817044868371 1.6089961278365128 L 0.8473961338450778 2.4329186845667685 L 0.6349602609559378 2.4329186845667685 L 0.5856657490148114 2.2873825064548714 M 0.5340238793622027 2.1324568974970455 L 0.4319138189127266 1.8308214315715816 L 0.3309774373189916 2.1324568974970455 L 0.5340238793622027 2.1324568974970455 M 1.138467916983493 1.6089961278365128 L 1.138467916983493 2.4329186845667685 L 0.9377688326517639 2.4329186845667685 L 0.9377688326517639 1.6089961278365128 L 1.138467916983493 1.6089961278365128" fill="#4e888f" fill-rule="nonzero"></path></g></g><defs><clipPath id="SvgjsClipPath194312"><path d=" M -6.913461586061813 -1.3352073009687286 h 6.513461586061813 v 5.103333286504226 h -6.513461586061813 Z"></path></clipPath><clipPath id="SvgjsClipPath194310d0f2dc08-c67a-4233-9039-4d6c19539d2e"><path d=" M -6.913461586061813 -1.3352073009687284 L -0.40000000000000036 -1.3352073009687284 L -0.40000000000000036 3.768125985535497 L -6.913461586061813 3.768125985535497 Z"></path></clipPath></defs></svg>